<svg xmlns="http://www.w3.org/2000/svg" viewBox="0 0 1024 1024" role="img" aria-labelledby="t d"><title id="t">Who To Draft Next</title><desc id="d">White football with a bright green rising arrow on a deep navy app icon</desc><defs><linearGradient id="bg" x1="0" y1="0" x2="1" y2="1"><stop offset="0" stop-color="#0B2B55"/><stop offset=".55" stop-color="#071A34"/><stop offset="1" stop-color="#061426"/></linearGradient><linearGradient id="g" x1="0" y1="1" x2="1" y2="0"><stop offset="0" stop-color="#1DB954"/><stop offset="1" stop-color="#6EEB3A"/></linearGradient></defs><rect x="16" y="16" width="992" height="992" rx="220" fill="url(#bg)"/><path d="M168 645c28-146 147-285 321-365 120-56 243-68 334-37-13 109-71 228-170 329-109 111-249 187-382 203-43 5-80-3-103-22 0-36 0-72 0-108Z" fill="#F8FAFC" stroke="#061426" stroke-width="24" stroke-linejoin="round"/><path d="M259 683c107-59 216-152 307-277" fill="none" stroke="#061426" stroke-width="24" stroke-linecap="round"/><path d="M384 532l38 37M445 479l39 36M506 423l38 34M323 595l37 35" fill="none" stroke="#061426" stroke-width="26" stroke-linecap="round"/><path d="M170 652c26 40 64 76 108 101" fill="none" stroke="#061426" stroke-width="24" stroke-linecap="round"/><path d="M242 823c178-4 332-69 458-194 66-66 117-139 153-220l79 31c-43 101-107 192-191 273-142 138-312 211-499 219Z" fill="url(#g)"/><path d="M780 376l146-20-20 147-47-49-90 89-55-56 89-89Z" fill="url(#g)"/></svg>